<?xml version="1.0" standalone="no"?>
<!DOCTYPE svg PUBLIC "-//W3C//DTD SVG 20010904//EN"
 "http://www.w3.org/TR/2001/REC-SVG-20010904/DTD/svg10.dtd">
<svg version="1.0" xmlns="http://www.w3.org/2000/svg"
 width="300.000000pt" height="300.000000pt" viewBox="0 0 300.000000 300.000000"
 preserveAspectRatio="xMidYMid meet">
<metadata>
Created by potrace 1.14, written by Peter Selinger 2001-2017
</metadata>
<g transform="translate(0.000000,300.000000) scale(0.100000,-0.100000)"
fill="#000000" stroke="none">
<path d="M1429 2804 c-54 -30 -87 -85 -85 -142 l1 -37 -225 -112 c-124 -62
-231 -113 -237 -113 -7 0 -13 -4 -13 -10 0 -5 -4 -10 -9 -10 -8 0 -139 -61
-171 -80 -8 -5 -80 -41 -160 -79 l-145 -71 -125 -1 c-84 -1 -136 -6 -160 -15
-38 -16 -77 -55 -91 -92 -5 -13 -9 -400 -9 -881 l0 -857 22 -44 c13 -24 36
-53 51 -64 28 -21 37 -21 1005 -24 969 -3 977 -2 993 18 23 27 109 33 109 6 0
-7 10 -16 23 -20 42 -11 652 -7 688 5 43 14 82 54 97 98 9 25 12 255 12 885
l0 852 -22 44 c-36 71 -83 89 -221 89 l-112 -1 -326 161 c-180 89 -331 161
-337 161 -6 0 -12 4 -14 8 -1 4 -30 20 -63 36 -217 103 -220 104 -222 147 -8
131 -143 207 -254 143z m-18 -283 c13 -10 37 -22 54 -28 39 -13 124 3 151 28
11 10 24 19 28 19 13 0 786 -383 786 -390 0 -3 -97 -4 -216 -3 -214 2 -215 2
-225 -21 -14 -30 -76 -29 -107 2 -21 21 -23 21 -609 21 -323 0 -610 0 -638 1
-49 1 -45 3 245 146 162 80 338 167 390 194 52 27 100 49 106 49 6 1 22 -7 35
-18z"/>
</g>
</svg>
